<?xml version="1.0" encoding="UTF-8"?>
<svg xmlns="http://www.w3.org/2000/svg" viewBox="0 0 720 540" width="720" height="540">
  <rect width="720" height="540" fill="#FBF7F2"></rect>

  
  <circle cx="360" cy="240" r="180" fill="none" stroke="#9A2A3A" stroke-width="3"></circle>
  
  <circle cx="360" cy="240" r="166" fill="none" stroke="#E8B5BD" stroke-width="6"></circle>

  
  
  <text x="360" y="262" font-family="Inter Tight, Arial, sans-serif" font-size="64" font-weight="700" fill="#5C1320" text-anchor="middle" letter-spacing="-2.4">MiPropina</text>

  
  
  
  
      <rect x="420" y="206" width="20" height="22" fill="#FBF7F2"></rect>
      <g transform="translate(430, 218)">
        
    <defs>
      <radialGradient id="coin-burdeos" cx="35%" cy="30%" r="80%">
        <stop offset="0%" stop-color="#FFF2B8"></stop>
        <stop offset="35%" stop-color="#E8B547"></stop>
        <stop offset="100%" stop-color="#9C6B12"></stop>
      </radialGradient>
    </defs>
    <ellipse cx="0" cy="2.1" rx="13.299999999999999" ry="3.5" fill="rgba(0,0,0,0.18)"></ellipse>
    <circle cx="0" cy="0" r="14" fill="#9C6B12"></circle>
    <line x1="13.50" y1="0.00" x2="12.88" y2="0.00" stroke="#E8B547" stroke-width="0.56" opacity="0.55"></line><line x1="13.29" y1="2.34" x2="12.68" y2="2.24" stroke="#E8B547" stroke-width="0.56" opacity="0.55"></line><line x1="12.69" y1="4.62" x2="12.10" y2="4.41" stroke="#E8B547" stroke-width="0.56" opacity="0.55"></line><line x1="11.69" y1="6.75" x2="11.15" y2="6.44" stroke="#E8B547" stroke-width="0.56" opacity="0.55"></line><line x1="10.34" y1="8.68" x2="9.87" y2="8.28" stroke="#E8B547" stroke-width="0.56" opacity="0.55"></line><line x1="8.68" y1="10.34" x2="8.28" y2="9.87" stroke="#E8B547" stroke-width="0.56" opacity="0.55"></line><line x1="6.75" y1="11.69" x2="6.44" y2="11.15" stroke="#E8B547" stroke-width="0.56" opacity="0.55"></line><line x1="4.62" y1="12.69" x2="4.41" y2="12.10" stroke="#E8B547" stroke-width="0.56" opacity="0.55"></line><line x1="2.34" y1="13.29" x2="2.24" y2="12.68" stroke="#E8B547" stroke-width="0.56" opacity="0.55"></line><line x1="0.00" y1="13.50" x2="0.00" y2="12.88" stroke="#E8B547" stroke-width="0.56" opacity="0.55"></line><line x1="-2.34" y1="13.29" x2="-2.24" y2="12.68" stroke="#E8B547" stroke-width="0.56" opacity="0.55"></line><line x1="-4.62" y1="12.69" x2="-4.41" y2="12.10" stroke="#E8B547" stroke-width="0.56" opacity="0.55"></line><line x1="-6.75" y1="11.69" x2="-6.44" y2="11.15" stroke="#E8B547" stroke-width="0.56" opacity="0.55"></line><line x1="-8.68" y1="10.34" x2="-8.28" y2="9.87" stroke="#E8B547" stroke-width="0.56" opacity="0.55"></line><line x1="-10.34" y1="8.68" x2="-9.87" y2="8.28" stroke="#E8B547" stroke-width="0.56" opacity="0.55"></line><line x1="-11.69" y1="6.75" x2="-11.15" y2="6.44" stroke="#E8B547" stroke-width="0.56" opacity="0.55"></line><line x1="-12.69" y1="4.62" x2="-12.10" y2="4.41" stroke="#E8B547" stroke-width="0.56" opacity="0.55"></line><line x1="-13.29" y1="2.34" x2="-12.68" y2="2.24" stroke="#E8B547" stroke-width="0.56" opacity="0.55"></line><line x1="-13.50" y1="0.00" x2="-12.88" y2="0.00" stroke="#E8B547" stroke-width="0.56" opacity="0.55"></line><line x1="-13.29" y1="-2.34" x2="-12.68" y2="-2.24" stroke="#E8B547" stroke-width="0.56" opacity="0.55"></line><line x1="-12.69" y1="-4.62" x2="-12.10" y2="-4.41" stroke="#E8B547" stroke-width="0.56" opacity="0.55"></line><line x1="-11.69" y1="-6.75" x2="-11.15" y2="-6.44" stroke="#E8B547" stroke-width="0.56" opacity="0.55"></line><line x1="-10.34" y1="-8.68" x2="-9.87" y2="-8.28" stroke="#E8B547" stroke-width="0.56" opacity="0.55"></line><line x1="-8.68" y1="-10.34" x2="-8.28" y2="-9.87" stroke="#E8B547" stroke-width="0.56" opacity="0.55"></line><line x1="-6.75" y1="-11.69" x2="-6.44" y2="-11.15" stroke="#E8B547" stroke-width="0.56" opacity="0.55"></line><line x1="-4.62" y1="-12.69" x2="-4.41" y2="-12.10" stroke="#E8B547" stroke-width="0.56" opacity="0.55"></line><line x1="-2.34" y1="-13.29" x2="-2.24" y2="-12.68" stroke="#E8B547" stroke-width="0.56" opacity="0.55"></line><line x1="-0.00" y1="-13.50" x2="-0.00" y2="-12.88" stroke="#E8B547" stroke-width="0.56" opacity="0.55"></line><line x1="2.34" y1="-13.29" x2="2.24" y2="-12.68" stroke="#E8B547" stroke-width="0.56" opacity="0.55"></line><line x1="4.62" y1="-12.69" x2="4.41" y2="-12.10" stroke="#E8B547" stroke-width="0.56" opacity="0.55"></line><line x1="6.75" y1="-11.69" x2="6.44" y2="-11.15" stroke="#E8B547" stroke-width="0.56" opacity="0.55"></line><line x1="8.68" y1="-10.34" x2="8.28" y2="-9.87" stroke="#E8B547" stroke-width="0.56" opacity="0.55"></line><line x1="10.34" y1="-8.68" x2="9.87" y2="-8.28" stroke="#E8B547" stroke-width="0.56" opacity="0.55"></line><line x1="11.69" y1="-6.75" x2="11.15" y2="-6.44" stroke="#E8B547" stroke-width="0.56" opacity="0.55"></line><line x1="12.69" y1="-4.62" x2="12.10" y2="-4.41" stroke="#E8B547" stroke-width="0.56" opacity="0.55"></line><line x1="13.29" y1="-2.34" x2="12.68" y2="-2.24" stroke="#E8B547" stroke-width="0.56" opacity="0.55"></line>
    <circle cx="0" cy="0" r="11.479999999999999" fill="url(#coin-burdeos)"></circle>
    <circle cx="0" cy="0" r="10.10" fill="none" stroke="#9C6B12" stroke-width="0.56" opacity="0.5"></circle>
    <path d="M -6.89 -2.30 A 8.04 8.04 0 0 1 -1.15 -7.46" stroke="rgba(255,255,255,0.7)" stroke-width="1.12" fill="none" stroke-linecap="round"></path>
    <text x="0" y="4.48" font-size="14.70" font-weight="800" fill="#9C6B12" text-anchor="middle" font-family="Inter Tight, Arial, sans-serif" letter-spacing="-0.05em">€</text>
  
      </g>
    

  
  <text x="360" y="470" font-family="Inter Tight, Arial, sans-serif" font-size="14" font-weight="600" fill="#5C1320" text-anchor="middle" letter-spacing="4" text-transform="uppercase">GRACIAS EN UN ESCANEO</text>
</svg>