<?xml version="1.0"?>
<svg xmlns="http://www.w3.org/2000/svg" viewBox="150 30 420 420" width="420" height="420">
  <defs><radialGradient id="coin-burdeos" cx="35%" cy="30%" r="80%">
      <stop offset="0%" stop-color="#FFF2B8"></stop>
      <stop offset="35%" stop-color="#E8B547"></stop>
      <stop offset="100%" stop-color="#9C6B12"></stop>
    </radialGradient></defs>
  <rect width="720" height="540" fill="#FBF7F2"></rect>

  
  <circle cx="360" cy="240" r="180" fill="none" stroke="#9A2A3A" stroke-width="3"></circle>
  
  <circle cx="360" cy="240" r="166" fill="none" stroke="#E8B5BD" stroke-width="6"></circle>

  
  <text x="360" y="262" font-family="Inter Tight, Arial, sans-serif" font-size="64" font-weight="700" fill="#5C1320" text-anchor="middle" style="letter-spacing:-2.4px">MıPropina</text>

  
  <rect x="415.29" y="210.00" width="22" height="14" fill="#FBF7F2"></rect>

  
  
    
    <ellipse cx="426.29376220703125" cy="206.10" rx="13.30" ry="3.50" fill="rgba(0,0,0,0.18)"></ellipse>
    <circle cx="426.29376220703125" cy="204" r="14" fill="#9C6B12"></circle>
    <line x1="439.79" y1="204.00" x2="439.17" y2="204.00" stroke="#E8B547" stroke-width="0.56" opacity="0.55"></line><line x1="439.59" y1="206.34" x2="438.98" y2="206.24" stroke="#E8B547" stroke-width="0.56" opacity="0.55"></line><line x1="438.98" y1="208.62" x2="438.40" y2="208.41" stroke="#E8B547" stroke-width="0.56" opacity="0.55"></line><line x1="437.99" y1="210.75" x2="437.45" y2="210.44" stroke="#E8B547" stroke-width="0.56" opacity="0.55"></line><line x1="436.64" y1="212.68" x2="436.16" y2="212.28" stroke="#E8B547" stroke-width="0.56" opacity="0.55"></line><line x1="434.97" y1="214.34" x2="434.57" y2="213.87" stroke="#E8B547" stroke-width="0.56" opacity="0.55"></line><line x1="433.04" y1="215.69" x2="432.73" y2="215.15" stroke="#E8B547" stroke-width="0.56" opacity="0.55"></line><line x1="430.91" y1="216.69" x2="430.70" y2="216.10" stroke="#E8B547" stroke-width="0.56" opacity="0.55"></line><line x1="428.64" y1="217.29" x2="428.53" y2="216.68" stroke="#E8B547" stroke-width="0.56" opacity="0.55"></line><line x1="426.29" y1="217.50" x2="426.29" y2="216.88" stroke="#E8B547" stroke-width="0.56" opacity="0.55"></line><line x1="423.95" y1="217.29" x2="424.06" y2="216.68" stroke="#E8B547" stroke-width="0.56" opacity="0.55"></line><line x1="421.68" y1="216.69" x2="421.89" y2="216.10" stroke="#E8B547" stroke-width="0.56" opacity="0.55"></line><line x1="419.54" y1="215.69" x2="419.85" y2="215.15" stroke="#E8B547" stroke-width="0.56" opacity="0.55"></line><line x1="417.62" y1="214.34" x2="418.01" y2="213.87" stroke="#E8B547" stroke-width="0.56" opacity="0.55"></line><line x1="415.95" y1="212.68" x2="416.43" y2="212.28" stroke="#E8B547" stroke-width="0.56" opacity="0.55"></line><line x1="414.60" y1="210.75" x2="415.14" y2="210.44" stroke="#E8B547" stroke-width="0.56" opacity="0.55"></line><line x1="413.61" y1="208.62" x2="414.19" y2="208.41" stroke="#E8B547" stroke-width="0.56" opacity="0.55"></line><line x1="413.00" y1="206.34" x2="413.61" y2="206.24" stroke="#E8B547" stroke-width="0.56" opacity="0.55"></line><line x1="412.79" y1="204.00" x2="413.41" y2="204.00" stroke="#E8B547" stroke-width="0.56" opacity="0.55"></line><line x1="413.00" y1="201.66" x2="413.61" y2="201.76" stroke="#E8B547" stroke-width="0.56" opacity="0.55"></line><line x1="413.61" y1="199.38" x2="414.19" y2="199.59" stroke="#E8B547" stroke-width="0.56" opacity="0.55"></line><line x1="414.60" y1="197.25" x2="415.14" y2="197.56" stroke="#E8B547" stroke-width="0.56" opacity="0.55"></line><line x1="415.95" y1="195.32" x2="416.43" y2="195.72" stroke="#E8B547" stroke-width="0.56" opacity="0.55"></line><line x1="417.62" y1="193.66" x2="418.01" y2="194.13" stroke="#E8B547" stroke-width="0.56" opacity="0.55"></line><line x1="419.54" y1="192.31" x2="419.85" y2="192.85" stroke="#E8B547" stroke-width="0.56" opacity="0.55"></line><line x1="421.68" y1="191.31" x2="421.89" y2="191.90" stroke="#E8B547" stroke-width="0.56" opacity="0.55"></line><line x1="423.95" y1="190.71" x2="424.06" y2="191.32" stroke="#E8B547" stroke-width="0.56" opacity="0.55"></line><line x1="426.29" y1="190.50" x2="426.29" y2="191.12" stroke="#E8B547" stroke-width="0.56" opacity="0.55"></line><line x1="428.64" y1="190.71" x2="428.53" y2="191.32" stroke="#E8B547" stroke-width="0.56" opacity="0.55"></line><line x1="430.91" y1="191.31" x2="430.70" y2="191.90" stroke="#E8B547" stroke-width="0.56" opacity="0.55"></line><line x1="433.04" y1="192.31" x2="432.73" y2="192.85" stroke="#E8B547" stroke-width="0.56" opacity="0.55"></line><line x1="434.97" y1="193.66" x2="434.57" y2="194.13" stroke="#E8B547" stroke-width="0.56" opacity="0.55"></line><line x1="436.64" y1="195.32" x2="436.16" y2="195.72" stroke="#E8B547" stroke-width="0.56" opacity="0.55"></line><line x1="437.99" y1="197.25" x2="437.45" y2="197.56" stroke="#E8B547" stroke-width="0.56" opacity="0.55"></line><line x1="438.98" y1="199.38" x2="438.40" y2="199.59" stroke="#E8B547" stroke-width="0.56" opacity="0.55"></line><line x1="439.59" y1="201.66" x2="438.98" y2="201.76" stroke="#E8B547" stroke-width="0.56" opacity="0.55"></line>
    <circle cx="426.29376220703125" cy="204" r="11.48" fill="url(#coin-burdeos)"></circle>
    <circle cx="426.29376220703125" cy="204" r="10.10" fill="none" stroke="#9C6B12" stroke-width="0.56" opacity="0.5"></circle>
    <path d="M 419.41 201.70 A 8.04 8.04 0 0 1 425.15 196.54" stroke="rgba(255,255,255,0.7)" stroke-width="1.12" fill="none" stroke-linecap="round"></path>
    <text x="426.29376220703125" y="208.48" font-size="14.70" font-weight="800" fill="#9C6B12" text-anchor="middle" font-family="Inter Tight, Arial, sans-serif" style="letter-spacing:-0.05em">€</text>
  

  
  </svg>